<?xml version="1.0" encoding="utf-8"?>
<!-- Svg Vector Icons : http://www.onlinewebfonts.com/icon -->
<!DOCTYPE svg PUBLIC "-//W3C//DTD SVG 1.1//EN" "http://www.w3.org/Graphics/SVG/1.1/DTD/svg11.dtd">
<svg version="1.1" xmlns="http://www.w3.org/2000/svg" xmlns:xlink="http://www.w3.org/1999/xlink" x="0px" y="0px" viewBox="0 0 1000 1000" enable-background="new 0 0 1000 1000" xml:space="preserve">
<metadata> Svg Vector Icons : http://www.onlinewebfonts.com/icon </metadata>
<g><path d="M954.3,582.2c15.3,43.4,25.5,79.1,30.6,107.2c5.1,28.1,6.4,44.7,3.8,49.8l-3.8,9.6c-5.1,2.6-12.1,5.1-21.1,7.7c-8.9,2.6-19.8,2.6-32.5,0c-6.4-1.3-15-5.1-25.8-11.5c-10.8-6.4-20.1-12.8-27.8-19.1l-13.4-9.6c-5.1,15.3-11.5,30-19.1,44L814.5,810c24.3,7.7,43.4,19.2,57.4,34.5c7.7,7.7,13.1,15.3,16.3,23c3.2,7.7,4.8,13.4,4.8,17.2v7.7c0,25.5-17.2,46-51.7,61.3c-21.7,10.2-45.6,17.9-71.8,23c-26.2,5.1-46.3,7.7-60.3,7.7h-23c-5.1,2.5-34.5-1.3-88.1-11.5c-8.9-1.3-17.6-3.5-25.8-6.7c-8.3-3.2-16.9-6.4-25.8-9.6c-8.9-3.2-15.3-5.4-19.2-6.7l-26.8-3.8c-7.6-1.3-16.6,0-26.8,3.8c-1.3,0-10.5,3.5-27.8,10.5c-17.2,7-31.6,11.2-43.1,12.5l-88.1,11.5c-53.6,1.3-105.3-8.9-155.1-30.6c-10.2-3.8-18.9-8.6-25.8-14.4c-7-5.7-12.2-11.5-15.3-17.2c-3.2-5.7-5.5-10.8-6.7-15.3c-1.3-4.5-1.9-8-1.9-10.5l-1.9-3.8c-2.6-14,4.5-30,21.1-47.9c3.8-3.8,8.3-7.7,13.4-11.5c5.1-3.8,10.2-7,15.3-9.6c5.1-2.6,9.9-5.1,14.3-7.7c4.5-2.5,7.9-3.8,10.5-3.8l3.8-1.9c-11.5-16.6-21.7-33.2-30.6-49.8l-19.1-44.1c-30.6,24.2-53,37.7-67,40.2c-14.1,1.3-25.2,1.3-33.5,0c-8.3-1.3-13.7-3.2-16.3-5.7l-3.8-1.9c-14-11.5-3.8-67,30.6-166.6c5.1-12.8,9.9-24.9,14.3-36.4c4.5-11.5,8.9-21.3,13.4-29.7c4.5-8.3,8.9-16,13.4-23c4.5-7,8.3-12.7,11.5-17.2c3.2-4.5,6-7.9,8.6-10.5c2.5-2.6,4.5-4.5,5.7-5.7l1.9-1.9c0-5.1-0.3-12.1-1-21.1c-0.7-8.9-0.3-26.5,1-52.6c1.3-26.1,4.5-52,9.6-77.5c5.1-25.5,15.6-55.2,31.6-89c16-33.8,36.1-64.8,60.3-92.9c30.6-35.7,69.6-62.5,116.8-80.4c47.2-17.9,86.8-27.4,118.7-28.7h47.9c2.6,1.3,9.3,1.3,20.1,0c10.8-1.3,27.8,0,50.7,3.8c23,3.8,46,8.9,68.9,15.3c23,6.4,47.9,17.2,74.7,32.5c26.8,15.3,49.8,34.5,68.9,57.4c24.3,28.1,44.4,58.7,60.3,91.9c16,33.2,26.5,63.5,31.6,90.9c5.1,27.5,8.6,52.6,10.5,75.6c1.9,23,2.3,40.9,1,53.6l-1.9,21.1C909.6,478.2,932.6,519.7,954.3,582.2z M286.1,845.4c58.7,55.5,130.2,83.3,214.4,83.3c84.3,0,155.7-27.8,214.4-83.3c58.7-55.5,88.1-122.9,88.1-202c0-33.2-5.7-65.7-17.2-97.6c-80.4,65.1-175.5,97.6-285.3,97.6c-109.8,0-204.9-32.5-285.3-97.6c-11.5,31.9-17.2,64.5-17.2,97.6C198,722.6,227.4,789.9,286.1,845.4z M368.4,385c-58.7,21.7-86.8,38.3-84.2,49.8c0,7.6,7,16,21.1,24.9c3.8,2.6,7.9,5.1,12.4,7.6c4.5,2.6,8.9,4.5,13.4,5.7c4.5,1.3,8.6,2.2,12.4,2.9c3.8,0.7,7,1,9.6,1h3.8c-3.8-3.8-7.7-9.6-11.5-17.2l-7.7-19.1c24.2,23,54.9,40.9,91.9,53.6c11.5,5.1,23.3,8.6,35.4,10.5c12.1,1.9,20.7,2.9,25.8,2.9l9.6-1.9c21.7,2.6,45.3-1.3,70.8-11.5c16.6-5.1,32.6-12.1,47.9-21.1c15.3-8.9,26.2-16.6,32.6-23l11.5-9.6c-2.6,7.7-5.1,14.1-7.7,19.2l-11.5,17.2c21.7-2.5,38.9-8.3,51.7-17.2c6.4-3.8,11.5-7.7,15.3-11.5c3.8-3.8,5.7-7,5.7-9.6v-3.8c0-1.3-0.6-3.2-1.9-5.7c-1.3-2.6-8.6-7.9-22-16.3c-13.4-8.3-33.5-17.5-60.3-27.8c-16.6-5.1-36.1-9.6-58.4-13.4c-22.3-3.8-39.9-5.7-52.6-5.7l-21.1-1.9C450.7,365.2,406.7,372.2,368.4,385z M404.8,143.7c-19.2,0-35.1,9.3-47.9,27.8c-12.8,18.5-19.1,41.2-19.1,68c0,12.8,1.6,25.2,4.8,37.3c3.2,12.2,7.9,22.3,14.4,30.6c6.4,8.3,13.7,15,22,20.1c8.3,5.1,16.9,7.7,25.8,7.7c19.2,0,35.1-9.2,47.9-27.8c12.7-18.5,19.2-41.2,19.2-68c0-12.7-1.6-25.2-4.8-37.3c-3.2-12.1-8-22.3-14.3-30.6c-6.4-8.3-13.7-15-22-20.1C422.3,146.3,413.7,143.7,404.8,143.7z M427.7,277.7c-19.1,0-28.7-12.7-28.7-38.3c0-25.5,9.6-38.3,28.7-38.3s28.7,12.8,28.7,38.3C456.5,265,446.9,277.7,427.7,277.7z M644.1,171.5c-12.8-18.5-28.7-27.8-47.9-27.8c-19.2,0-35.1,9.3-47.9,27.8c-12.8,18.5-19.2,41.2-19.2,68s6.4,49.5,19.2,68c12.8,18.5,28.7,27.8,47.9,27.8c19.1,0,35.1-9.2,47.9-27.8c12.8-18.5,19.2-41.2,19.2-68S656.9,190,644.1,171.5z M551.2,264.3c-5.7-1.3-8-4.5-6.7-9.6c2.6-12.7,7.3-24.2,14.4-34.5c7-10.2,15.6-14.7,25.8-13.4c19.1,2.6,27.4,21.7,24.9,57.4c-1.3,5.1-4.5,7.7-9.6,7.7c-6.4-1.3-8.9-4.5-7.6-9.6c1.3-24.2-1.9-37-9.6-38.3c-10.2-1.3-17.3,10.2-21.1,34.5C560.5,263.7,557,265.6,551.2,264.3z"/></g>
</svg>