<?xml version="1.0" encoding="utf-8"?>
<!-- Svg Vector Icons : http://www.onlinewebfonts.com/icon -->
<!DOCTYPE svg PUBLIC "-//W3C//DTD SVG 1.1//EN" "http://www.w3.org/Graphics/SVG/1.1/DTD/svg11.dtd">
<svg version="1.1" xmlns="http://www.w3.org/2000/svg" xmlns:xlink="http://www.w3.org/1999/xlink" x="0px" y="0px" viewBox="0 0 1000 1000" enable-background="new 0 0 1000 1000" xml:space="preserve">
<metadata> Svg Vector Icons : http://www.onlinewebfonts.com/icon </metadata>
<g><path d="M990,775.2c0-275.2-244.6-214.1-244.6-428.1c0-17.7-1.7-32.9-4.8-45.8c-16.1-108-88.1-194.7-181.3-221.1c0.8-3.8,1.3-7.7,1.3-11.7c0-31.8-27.5-57.8-61.2-57.8c-33.6,0-61.2,26-61.2,57.8c0,4,0.4,7.9,1.3,11.7c-104.6,29.6-182.4,135-184.7,261.3c0,1.8-0.1,3.7-0.1,5.6C254.6,561.2,10,500,10,775.2c0,72.8,163,133.8,381.3,149.2c20.6,38.6,61.2,64.9,108,64.9c46.8,0,87.4-26.3,108-64.9c218.2-15.4,381.3-76.3,381.3-149.2c0-0.2,0-0.4,0-0.6L990,775.2L990,775.2z M799.6,826.9c-51.8,13.8-112.9,23.8-178.5,29.3c-5.5-62.5-57.9-111.6-121.8-111.6c-63.9,0-116.4,49-121.8,111.6c-65.6-5.5-126.7-15.5-178.5-29.3c-71.3-19-105.4-40.3-117.9-51.7c12.5-11.4,46.6-32.7,117.9-51.7c82.9-22.1,189.6-34.3,300.3-34.3c110.7,0,217.4,12.2,300.3,34.3c71.3,19,105.4,40.3,117.9,51.7C904.9,786.6,870.9,807.9,799.6,826.9L799.6,826.9z"/></g>
</svg>