<?xml version="1.0" encoding="utf-8"?>
<!-- Svg Vector Icons : http://www.onlinewebfonts.com/icon -->
<!DOCTYPE svg PUBLIC "-//W3C//DTD SVG 1.1//EN" "http://www.w3.org/Graphics/SVG/1.1/DTD/svg11.dtd">
<svg version="1.1" xmlns="http://www.w3.org/2000/svg" xmlns:xlink="http://www.w3.org/1999/xlink" x="0px" y="0px" viewBox="0 0 1000 1000" enable-background="new 0 0 1000 1000" xml:space="preserve">
<metadata> Svg Vector Icons : http://www.onlinewebfonts.com/icon </metadata>
<g><path d="M10,749.5"/><path d="M361.8,562.1c-80.6,0-146.2,65.6-146.2,146.2c0,80.6,65.6,146.2,146.2,146.2S508,788.8,508,708.2C508,627.6,442.4,562.1,361.8,562.1z M361.8,803.4c-52.5,0-95.2-42.7-95.2-95.2s42.7-95.2,95.2-95.2c52.5,0,95.2,42.7,95.2,95.2S414.3,803.4,361.8,803.4z"/><path d="M843.8,562.1c-80.6,0-146.2,65.6-146.2,146.2c0,80.6,65.6,146.2,146.2,146.2c80.6,0,146.2-65.6,146.2-146.2C990,627.6,924.4,562.1,843.8,562.1z M843.8,803.4c-52.5,0-95.2-42.7-95.2-95.2s42.7-95.2,95.2-95.2s95.2,42.7,95.2,95.2S896.3,803.4,843.8,803.4z"/><path d="M812.7,337.2c52.8,0,95.8-43,95.8-95.8c0-52.8-43-95.8-95.8-95.8c-52.8,0-95.8,43-95.8,95.8C716.9,294.2,759.9,337.2,812.7,337.2z"/><path d="M658.5,559.2c-22.6-18.8-59.5-52.2-83.1-73.6c28.5-21.3,79.4-56.3,128.9-74.6l80.4,64.4c0.2,0.1,0.3,0.2,0.5,0.4c0.1,0.1,0.2,0.2,0.3,0.2c0.7,0.5,1.4,1,2.1,1.4c0,0,0.1,0,0.1,0.1c0.4,0.2,0.7,0.4,1.1,0.6c0,0,0,0,0.1,0c2.8,1.5,5.9,2.4,8.9,2.7c0.1,0,0.1,0,0.2,0c0.4,0,0.8,0.1,1.1,0.1c0.1,0,0.1,0,0.2,0c0.4,0,0.9,0,1.3,0c0,0,0,0,0,0h112.2c14.1,0,25.5-11.4,25.5-25.5c0-14.1-11.4-25.5-25.5-25.5H812.4L705.7,307.2c-2.8-3.9-5.3-7.3-7.6-10.2c-8.4-10.7-17-20.3-30.5-20.3c-0.6,0-1.2,0-1.9,0.1c-0.1,0-0.3,0-0.4,0c-0.2,0-0.4,0-0.6,0c-54,5-108.2,36.3-144.3,61.8c-42.3,29.9-81.6,67.6-102.5,98.4c-14.8,21.8-14.4,39-10.5,54c2.6,11.5,6.1,21.9,30.3,41.2c14.2,11.4,33.6,25.7,57.7,42.6c28.6,20,57.2,39,71.9,48.7l21.5,180.8c1.5,12.7,12.2,22.3,25,22.5c0.1,0,0.3,0,0.4,0c12.6,0,23.4-9.2,25.2-21.8c1.1-7.5,27.1-183,28.3-225.6C667.9,571.6,664.5,564.2,658.5,559.2z"/></g>
</svg>